{
	"asset":{
		"generator":"Khronos glTF Blender I/O v5.1.19",
		"version":"2.0"
	},
	"scene":0,
	"scenes":[
		{
			"name":"Scene",
			"nodes":[
				20
			]
		}
	],
	"nodes":[
		{
			"mesh":0,
			"name":"Object_10"
		},
		{
			"mesh":1,
			"name":"Object_11"
		},
		{
			"mesh":2,
			"name":"Object_12"
		},
		{
			"mesh":3,
			"name":"Object_13"
		},
		{
			"mesh":4,
			"name":"Object_14"
		},
		{
			"mesh":5,
			"name":"Object_15"
		},
		{
			"mesh":6,
			"name":"Object_16"
		},
		{
			"mesh":7,
			"name":"Object_17"
		},
		{
			"mesh":8,
			"name":"Object_18"
		},
		{
			"mesh":9,
			"name":"Object_19"
		},
		{
			"mesh":10,
			"name":"Object_20"
		},
		{
			"mesh":11,
			"name":"Object_4"
		},
		{
			"mesh":12,
			"name":"Object_5"
		},
		{
			"mesh":13,
			"name":"Object_6"
		},
		{
			"mesh":14,
			"name":"Object_7"
		},
		{
			"mesh":15,
			"name":"Object_8"
		},
		{
			"mesh":16,
			"name":"Object_9"
		},
		{
			"children":[
				0,
				1,
				2,
				3,
				4,
				5,
				6,
				7,
				8,
				9,
				10,
				11,
				12,
				13,
				14,
				15,
				16
			],
			"name":"Cube.001_0",
			"scale":[
				1,
				0.036003243178129196,
				1
			],
			"translation":[
				-0.9545975923538208,
				-0.5337729454040527,
				-0.4673244059085846
			]
		},
		{
			"children":[
				17
			],
			"name":"GLTF_SceneRootNode",
			"rotation":[
				0.70710688829422,
				0,
				0,
				0.7071066498756409
			]
		},
		{
			"children":[
				18
			],
			"name":"root"
		},
		{
			"children":[
				19
			],
			"name":"Sketchfab_model",
			"rotation":[
				-0.70710688829422,
				0,
				0,
				0.7071066498756409
			]
		}
	],
	"materials":[
		{
			"doubleSided":true,
			"name":"building3",
			"pbrMetallicRoughness":{
				"baseColorTexture":{
					"index":0
				},
				"metallicFactor":0,
				"roughnessFactor":0.5
			}
		},
		{
			"doubleSided":true,
			"name":"building3.001",
			"pbrMetallicRoughness":{
				"baseColorTexture":{
					"index":1
				},
				"metallicFactor":0,
				"roughnessFactor":0
			}
		},
		{
			"doubleSided":true,
			"name":"building3.002",
			"pbrMetallicRoughness":{
				"baseColorTexture":{
					"index":2
				},
				"metallicFactor":0,
				"roughnessFactor":0.5
			}
		}
	],
	"meshes":[
		{
			"name":"Object_6",
			"primitives":[
				{
					"attributes":{
						"POSITION":0,
						"NORMAL":1,
						"TEXCOORD_0":2
					},
					"indices":3,
					"material":0
				}
			]
		},
		{
			"name":"Object_7",
			"primitives":[
				{
					"attributes":{
						"POSITION":4,
						"NORMAL":5,
						"TEXCOORD_0":6
					},
					"indices":7,
					"material":0
				}
			]
		},
		{
			"name":"Object_8",
			"primitives":[
				{
					"attributes":{
						"POSITION":8,
						"NORMAL":9,
						"TEXCOORD_0":10
					},
					"indices":11,
					"material":0
				}
			]
		},
		{
			"name":"Object_9",
			"primitives":[
				{
					"attributes":{
						"POSITION":12,
						"NORMAL":13,
						"TEXCOORD_0":14
					},
					"indices":15,
					"material":0
				}
			]
		},
		{
			"name":"Object_10",
			"primitives":[
				{
					"attributes":{
						"POSITION":16,
						"NORMAL":17,
						"TEXCOORD_0":18
					},
					"indices":19,
					"material":0
				}
			]
		},
		{
			"name":"Object_11",
			"primitives":[
				{
					"attributes":{
						"POSITION":20,
						"NORMAL":21,
						"TEXCOORD_0":22
					},
					"indices":23,
					"material":0
				}
			]
		},
		{
			"name":"Object_12",
			"primitives":[
				{
					"attributes":{
						"POSITION":24,
						"NORMAL":25,
						"TEXCOORD_0":26
					},
					"indices":27,
					"material":0
				}
			]
		},
		{
			"name":"Object_13",
			"primitives":[
				{
					"attributes":{
						"POSITION":28,
						"NORMAL":29,
						"TEXCOORD_0":30
					},
					"indices":31,
					"material":0
				}
			]
		},
		{
			"name":"Object_14",
			"primitives":[
				{
					"attributes":{
						"POSITION":32,
						"NORMAL":33,
						"TEXCOORD_0":34
					},
					"indices":35,
					"material":0
				}
			]
		},
		{
			"name":"Object_15",
			"primitives":[
				{
					"attributes":{
						"POSITION":36,
						"NORMAL":37,
						"TEXCOORD_0":38
					},
					"indices":39,
					"material":0
				}
			]
		},
		{
			"name":"Object_16",
			"primitives":[
				{
					"attributes":{
						"POSITION":40,
						"NORMAL":41,
						"TEXCOORD_0":42
					},
					"indices":43,
					"material":1
				}
			]
		},
		{
			"name":"Object_0",
			"primitives":[
				{
					"attributes":{
						"POSITION":44,
						"NORMAL":45,
						"TEXCOORD_0":46
					},
					"indices":47,
					"material":2
				}
			]
		},
		{
			"name":"Object_1",
			"primitives":[
				{
					"attributes":{
						"POSITION":48,
						"NORMAL":49,
						"TEXCOORD_0":50
					},
					"indices":51,
					"material":0
				}
			]
		},
		{
			"name":"Object_2",
			"primitives":[
				{
					"attributes":{
						"POSITION":52,
						"NORMAL":53,
						"TEXCOORD_0":54
					},
					"indices":55,
					"material":0
				}
			]
		},
		{
			"name":"Object_3",
			"primitives":[
				{
					"attributes":{
						"POSITION":56,
						"NORMAL":57,
						"TEXCOORD_0":58
					},
					"indices":59,
					"material":0
				}
			]
		},
		{
			"name":"Object_4",
			"primitives":[
				{
					"attributes":{
						"POSITION":60,
						"NORMAL":61,
						"TEXCOORD_0":62
					},
					"indices":63,
					"material":0
				}
			]
		},
		{
			"name":"Object_5",
			"primitives":[
				{
					"attributes":{
						"POSITION":64,
						"NORMAL":65,
						"TEXCOORD_0":66
					},
					"indices":67,
					"material":0
				}
			]
		}
	],
	"textures":[
		{
			"sampler":0,
			"source":0
		},
		{
			"sampler":0,
			"source":0
		},
		{
			"sampler":0,
			"source":0
		}
	],
	"images":[
		{
			"mimeType":"image/png",
			"name":"building3.002_baseColor",
			"uri":"building3.002_baseColor.png"
		}
	],
	"accessors":[
		{
			"bufferView":0,
			"componentType":5126,
			"count":80246,
			"max":[
				0.9695582985877991,
				112.03915405273438,
				0.9468165636062622
			],
			"min":[
				0.5496137142181396,
				1.3729324340820312,
				-0.9711523056030273
			],
			"type":"VEC3"
		},
		{
			"bufferView":1,
			"componentType":5126,
			"count":80246,
			"type":"VEC3"
		},
		{
			"bufferView":2,
			"componentType":5126,
			"count":80246,
			"type":"VEC2"
		},
		{
			"bufferView":3,
			"componentType":5125,
			"count":131172,
			"type":"SCALAR"
		},
		{
			"bufferView":4,
			"componentType":5126,
			"count":75224,
			"max":[
				0.9695587754249573,
				109.59559631347656,
				0.9468165636062622
			],
			"min":[
				-0.9745255708694458,
				0.9380550384521484,
				-0.9711523056030273
			],
			"type":"VEC3"
		},
		{
			"bufferView":5,
			"componentType":5126,
			"count":75224,
			"type":"VEC3"
		},
		{
			"bufferView":6,
			"componentType":5126,
			"count":75224,
			"type":"VEC2"
		},
		{
			"bufferView":7,
			"componentType":5125,
			"count":125316,
			"type":"SCALAR"
		},
		{
			"bufferView":8,
			"componentType":5126,
			"count":74209,
			"max":[
				0.9695588946342468,
				112.03913879394531,
				0.9586332440376282
			],
			"min":[
				-0.9745250940322876,
				0.9380550384521484,
				-0.9815711975097656
			],
			"type":"VEC3"
		},
		{
			"bufferView":9,
			"componentType":5126,
			"count":74209,
			"type":"VEC3"
		},
		{
			"bufferView":10,
			"componentType":5126,
			"count":74209,
			"type":"VEC2"
		},
		{
			"bufferView":11,
			"componentType":5125,
			"count":125757,
			"type":"SCALAR"
		},
		{
			"bufferView":12,
			"componentType":5126,
			"count":77802,
			"max":[
				0.9695584774017334,
				109.59559631347656,
				0.9468165636062622
			],
			"min":[
				0.06285881996154785,
				28.870067596435547,
				-0.9774578809738159
			],
			"type":"VEC3"
		},
		{
			"bufferView":13,
			"componentType":5126,
			"count":77802,
			"type":"VEC3"
		},
		{
			"bufferView":14,
			"componentType":5126,
			"count":77802,
			"type":"VEC2"
		},
		{
			"bufferView":15,
			"componentType":5125,
			"count":138372,
			"type":"SCALAR"
		},
		{
			"bufferView":16,
			"componentType":5126,
			"count":70474,
			"max":[
				0.95691978931427,
				112.03913879394531,
				-0.9224278926849365
			],
			"min":[
				-0.9610490798950195,
				56.488609313964844,
				-0.9828794002532959
			],
			"type":"VEC3"
		},
		{
			"bufferView":17,
			"componentType":5126,
			"count":70474,
			"type":"VEC3"
		},
		{
			"bufferView":18,
			"componentType":5126,
			"count":70474,
			"type":"VEC2"
		},
		{
			"bufferView":19,
			"componentType":5125,
			"count":136734,
			"type":"SCALAR"
		},
		{
			"bufferView":20,
			"componentType":5126,
			"count":73067,
			"max":[
				-0.002064526081085205,
				112.03913879394531,
				0.3965359926223755
			],
			"min":[
				-0.9758340120315552,
				0.9380645751953125,
				-0.9828789234161377
			],
			"type":"VEC3"
		},
		{
			"bufferView":21,
			"componentType":5126,
			"count":73067,
			"type":"VEC3"
		},
		{
			"bufferView":22,
			"componentType":5126,
			"count":73067,
			"type":"VEC2"
		},
		{
			"bufferView":23,
			"componentType":5125,
			"count":127860,
			"type":"SCALAR"
		},
		{
			"bufferView":24,
			"componentType":5126,
			"count":76692,
			"max":[
				-0.9153825044631958,
				56.488609313964844,
				0.9482141733169556
			],
			"min":[
				-0.9758341312408447,
				0.9380645751953125,
				-0.9697545766830444
			],
			"type":"VEC3"
		},
		{
			"bufferView":25,
			"componentType":5126,
			"count":76692,
			"type":"VEC3"
		},
		{
			"bufferView":26,
			"componentType":5126,
			"count":76692,
			"type":"VEC2"
		},
		{
			"bufferView":27,
			"componentType":5125,
			"count":128550,
			"type":"SCALAR"
		},
		{
			"bufferView":28,
			"componentType":5126,
			"count":79214,
			"max":[
				-0.9153822660446167,
				84.26387786865234,
				0.9482141733169556
			],
			"min":[
				-0.9758338928222656,
				28.713333129882812,
				-0.9697545766830444
			],
			"type":"VEC3"
		},
		{
			"bufferView":29,
			"componentType":5126,
			"count":79214,
			"type":"VEC3"
		},
		{
			"bufferView":30,
			"componentType":5126,
			"count":79214,
			"type":"VEC2"
		},
		{
			"bufferView":31,
			"componentType":5125,
			"count":128736,
			"type":"SCALAR"
		},
		{
			"bufferView":32,
			"componentType":5126,
			"count":79064,
			"max":[
				-0.9153820276260376,
				112.03913879394531,
				0.9482141733169556
			],
			"min":[
				-0.9758336544036865,
				56.488609313964844,
				-0.9697545766830444
			],
			"type":"VEC3"
		},
		{
			"bufferView":33,
			"componentType":5126,
			"count":79064,
			"type":"VEC3"
		},
		{
			"bufferView":34,
			"componentType":5126,
			"count":79064,
			"type":"VEC2"
		},
		{
			"bufferView":35,
			"componentType":5125,
			"count":132342,
			"type":"SCALAR"
		},
		{
			"bufferView":36,
			"componentType":5126,
			"count":66654,
			"max":[
				0.9547737836837769,
				112.03913879394531,
				0.9599417448043823
			],
			"min":[
				-0.9758334159851074,
				0.9380702972412109,
				0.015107214450836182
			],
			"type":"VEC3"
		},
		{
			"bufferView":37,
			"componentType":5126,
			"count":66654,
			"type":"VEC3"
		},
		{
			"bufferView":38,
			"componentType":5126,
			"count":66654,
			"type":"VEC2"
		},
		{
			"bufferView":39,
			"componentType":5125,
			"count":118419,
			"type":"SCALAR"
		},
		{
			"bufferView":40,
			"componentType":5126,
			"count":26496,
			"max":[
				0.931042492389679,
				111.75254821777344,
				0.9209392666816711
			],
			"min":[
				-0.9373178482055664,
				1.224313735961914,
				-0.9438772201538086
			],
			"type":"VEC3"
		},
		{
			"bufferView":41,
			"componentType":5126,
			"count":26496,
			"type":"VEC3"
		},
		{
			"bufferView":42,
			"componentType":5126,
			"count":26496,
			"type":"VEC2"
		},
		{
			"bufferView":43,
			"componentType":5123,
			"count":39744,
			"type":"SCALAR"
		},
		{
			"bufferView":44,
			"componentType":5126,
			"count":48,
			"max":[
				1,
				114.0152359008789,
				1
			],
			"min":[
				-1,
				-1,
				-1
			],
			"type":"VEC3"
		},
		{
			"bufferView":45,
			"componentType":5126,
			"count":48,
			"type":"VEC3"
		},
		{
			"bufferView":46,
			"componentType":5126,
			"count":48,
			"type":"VEC2"
		},
		{
			"bufferView":47,
			"componentType":5123,
			"count":72,
			"type":"SCALAR"
		},
		{
			"bufferView":48,
			"componentType":5126,
			"count":71261,
			"max":[
				0.9547737836837769,
				112.03913879394531,
				0.9599413871765137
			],
			"min":[
				-0.9631952047348022,
				56.64533996582031,
				0.8994896411895752
			],
			"type":"VEC3"
		},
		{
			"bufferView":49,
			"componentType":5126,
			"count":71261,
			"type":"VEC3"
		},
		{
			"bufferView":50,
			"componentType":5126,
			"count":71261,
			"type":"VEC2"
		},
		{
			"bufferView":51,
			"componentType":5125,
			"count":135909,
			"type":"SCALAR"
		},
		{
			"bufferView":52,
			"componentType":5126,
			"count":72384,
			"max":[
				0.9547737836837769,
				84.26387023925781,
				0.959941565990448
			],
			"min":[
				-0.9631952047348022,
				28.713335037231445,
				0.8994899392127991
			],
			"type":"VEC3"
		},
		{
			"bufferView":53,
			"componentType":5126,
			"count":72384,
			"type":"VEC3"
		},
		{
			"bufferView":54,
			"componentType":5126,
			"count":72384,
			"type":"VEC2"
		},
		{
			"bufferView":55,
			"componentType":5125,
			"count":127818,
			"type":"SCALAR"
		},
		{
			"bufferView":56,
			"componentType":5126,
			"count":71016,
			"max":[
				0.95691978931427,
				84.26387786865234,
				0.9599417448043823
			],
			"min":[
				-0.9631952047348022,
				0.9380741119384766,
				-0.9774578809738159
			],
			"type":"VEC3"
		},
		{
			"bufferView":57,
			"componentType":5126,
			"count":71016,
			"type":"VEC3"
		},
		{
			"bufferView":58,
			"componentType":5126,
			"count":71016,
			"type":"VEC2"
		},
		{
			"bufferView":59,
			"componentType":5125,
			"count":128676,
			"type":"SCALAR"
		},
		{
			"bufferView":60,
			"componentType":5126,
			"count":69967,
			"max":[
				0.95691978931427,
				81.8203125,
				-0.9224281311035156
			],
			"min":[
				-0.9610490798950195,
				28.713335037231445,
				-0.9828797578811646
			],
			"type":"VEC3"
		},
		{
			"bufferView":61,
			"componentType":5126,
			"count":69967,
			"type":"VEC3"
		},
		{
			"bufferView":62,
			"componentType":5126,
			"count":69967,
			"type":"VEC2"
		},
		{
			"bufferView":63,
			"componentType":5125,
			"count":128286,
			"type":"SCALAR"
		},
		{
			"bufferView":64,
			"componentType":5126,
			"count":70022,
			"max":[
				0.95691978931427,
				54.0450439453125,
				-0.9224283695220947
			],
			"min":[
				-0.9610490798950195,
				0.9380626678466797,
				-0.9828797578811646
			],
			"type":"VEC3"
		},
		{
			"bufferView":65,
			"componentType":5126,
			"count":70022,
			"type":"VEC3"
		},
		{
			"bufferView":66,
			"componentType":5126,
			"count":70022,
			"type":"VEC2"
		},
		{
			"bufferView":67,
			"componentType":5125,
			"count":127941,
			"type":"SCALAR"
		}
	],
	"bufferViews":[
		{
			"buffer":0,
			"byteLength":962952,
			"byteOffset":0,
			"target":34962
		},
		{
			"buffer":0,
			"byteLength":962952,
			"byteOffset":962952,
			"target":34962
		},
		{
			"buffer":0,
			"byteLength":641968,
			"byteOffset":1925904,
			"target":34962
		},
		{
			"buffer":0,
			"byteLength":524688,
			"byteOffset":2567872,
			"target":34963
		},
		{
			"buffer":0,
			"byteLength":902688,
			"byteOffset":3092560,
			"target":34962
		},
		{
			"buffer":0,
			"byteLength":902688,
			"byteOffset":3995248,
			"target":34962
		},
		{
			"buffer":0,
			"byteLength":601792,
			"byteOffset":4897936,
			"target":34962
		},
		{
			"buffer":0,
			"byteLength":501264,
			"byteOffset":5499728,
			"target":34963
		},
		{
			"buffer":0,
			"byteLength":890508,
			"byteOffset":6000992,
			"target":34962
		},
		{
			"buffer":0,
			"byteLength":890508,
			"byteOffset":6891500,
			"target":34962
		},
		{
			"buffer":0,
			"byteLength":593672,
			"byteOffset":7782008,
			"target":34962
		},
		{
			"buffer":0,
			"byteLength":503028,
			"byteOffset":8375680,
			"target":34963
		},
		{
			"buffer":0,
			"byteLength":933624,
			"byteOffset":8878708,
			"target":34962
		},
		{
			"buffer":0,
			"byteLength":933624,
			"byteOffset":9812332,
			"target":34962
		},
		{
			"buffer":0,
			"byteLength":622416,
			"byteOffset":10745956,
			"target":34962
		},
		{
			"buffer":0,
			"byteLength":553488,
			"byteOffset":11368372,
			"target":34963
		},
		{
			"buffer":0,
			"byteLength":845688,
			"byteOffset":11921860,
			"target":34962
		},
		{
			"buffer":0,
			"byteLength":845688,
			"byteOffset":12767548,
			"target":34962
		},
		{
			"buffer":0,
			"byteLength":563792,
			"byteOffset":13613236,
			"target":34962
		},
		{
			"buffer":0,
			"byteLength":546936,
			"byteOffset":14177028,
			"target":34963
		},
		{
			"buffer":0,
			"byteLength":876804,
			"byteOffset":14723964,
			"target":34962
		},
		{
			"buffer":0,
			"byteLength":876804,
			"byteOffset":15600768,
			"target":34962
		},
		{
			"buffer":0,
			"byteLength":584536,
			"byteOffset":16477572,
			"target":34962
		},
		{
			"buffer":0,
			"byteLength":511440,
			"byteOffset":17062108,
			"target":34963
		},
		{
			"buffer":0,
			"byteLength":920304,
			"byteOffset":17573548,
			"target":34962
		},
		{
			"buffer":0,
			"byteLength":920304,
			"byteOffset":18493852,
			"target":34962
		},
		{
			"buffer":0,
			"byteLength":613536,
			"byteOffset":19414156,
			"target":34962
		},
		{
			"buffer":0,
			"byteLength":514200,
			"byteOffset":20027692,
			"target":34963
		},
		{
			"buffer":0,
			"byteLength":950568,
			"byteOffset":20541892,
			"target":34962
		},
		{
			"buffer":0,
			"byteLength":950568,
			"byteOffset":21492460,
			"target":34962
		},
		{
			"buffer":0,
			"byteLength":633712,
			"byteOffset":22443028,
			"target":34962
		},
		{
			"buffer":0,
			"byteLength":514944,
			"byteOffset":23076740,
			"target":34963
		},
		{
			"buffer":0,
			"byteLength":948768,
			"byteOffset":23591684,
			"target":34962
		},
		{
			"buffer":0,
			"byteLength":948768,
			"byteOffset":24540452,
			"target":34962
		},
		{
			"buffer":0,
			"byteLength":632512,
			"byteOffset":25489220,
			"target":34962
		},
		{
			"buffer":0,
			"byteLength":529368,
			"byteOffset":26121732,
			"target":34963
		},
		{
			"buffer":0,
			"byteLength":799848,
			"byteOffset":26651100,
			"target":34962
		},
		{
			"buffer":0,
			"byteLength":799848,
			"byteOffset":27450948,
			"target":34962
		},
		{
			"buffer":0,
			"byteLength":533232,
			"byteOffset":28250796,
			"target":34962
		},
		{
			"buffer":0,
			"byteLength":473676,
			"byteOffset":28784028,
			"target":34963
		},
		{
			"buffer":0,
			"byteLength":317952,
			"byteOffset":29257704,
			"target":34962
		},
		{
			"buffer":0,
			"byteLength":317952,
			"byteOffset":29575656,
			"target":34962
		},
		{
			"buffer":0,
			"byteLength":211968,
			"byteOffset":29893608,
			"target":34962
		},
		{
			"buffer":0,
			"byteLength":79488,
			"byteOffset":30105576,
			"target":34963
		},
		{
			"buffer":0,
			"byteLength":576,
			"byteOffset":30185064,
			"target":34962
		},
		{
			"buffer":0,
			"byteLength":576,
			"byteOffset":30185640,
			"target":34962
		},
		{
			"buffer":0,
			"byteLength":384,
			"byteOffset":30186216,
			"target":34962
		},
		{
			"buffer":0,
			"byteLength":144,
			"byteOffset":30186600,
			"target":34963
		},
		{
			"buffer":0,
			"byteLength":855132,
			"byteOffset":30186744,
			"target":34962
		},
		{
			"buffer":0,
			"byteLength":855132,
			"byteOffset":31041876,
			"target":34962
		},
		{
			"buffer":0,
			"byteLength":570088,
			"byteOffset":31897008,
			"target":34962
		},
		{
			"buffer":0,
			"byteLength":543636,
			"byteOffset":32467096,
			"target":34963
		},
		{
			"buffer":0,
			"byteLength":868608,
			"byteOffset":33010732,
			"target":34962
		},
		{
			"buffer":0,
			"byteLength":868608,
			"byteOffset":33879340,
			"target":34962
		},
		{
			"buffer":0,
			"byteLength":579072,
			"byteOffset":34747948,
			"target":34962
		},
		{
			"buffer":0,
			"byteLength":511272,
			"byteOffset":35327020,
			"target":34963
		},
		{
			"buffer":0,
			"byteLength":852192,
			"byteOffset":35838292,
			"target":34962
		},
		{
			"buffer":0,
			"byteLength":852192,
			"byteOffset":36690484,
			"target":34962
		},
		{
			"buffer":0,
			"byteLength":568128,
			"byteOffset":37542676,
			"target":34962
		},
		{
			"buffer":0,
			"byteLength":514704,
			"byteOffset":38110804,
			"target":34963
		},
		{
			"buffer":0,
			"byteLength":839604,
			"byteOffset":38625508,
			"target":34962
		},
		{
			"buffer":0,
			"byteLength":839604,
			"byteOffset":39465112,
			"target":34962
		},
		{
			"buffer":0,
			"byteLength":559736,
			"byteOffset":40304716,
			"target":34962
		},
		{
			"buffer":0,
			"byteLength":513144,
			"byteOffset":40864452,
			"target":34963
		},
		{
			"buffer":0,
			"byteLength":840264,
			"byteOffset":41377596,
			"target":34962
		},
		{
			"buffer":0,
			"byteLength":840264,
			"byteOffset":42217860,
			"target":34962
		},
		{
			"buffer":0,
			"byteLength":560176,
			"byteOffset":43058124,
			"target":34962
		},
		{
			"buffer":0,
			"byteLength":511764,
			"byteOffset":43618300,
			"target":34963
		}
	],
	"samplers":[
		{
			"magFilter":9729,
			"minFilter":9987,
			"wrapS":33071,
			"wrapT":33071
		}
	],
	"buffers":[
		{
			"byteLength":44130064,
			"uri":"ktx.bin"
		}
	]
}
